<svg xmlns="http://www.w3.org/2000/svg" width="1920" height="1080" viewBox="0 0 1920 1080">
  <rect width="1920" height="1080" fill="#fff8dc"/>
  <rect y="750" width="1920" height="330" fill="#d2b48c"/>
  <!-- ж©±жџњ -->
  <rect x="100" y="100" width="600" height="300" fill="#8b4513"/>
  <rect x="120" y="120" width="180" height="260" fill="#a0522d"/>
  <rect x="320" y="120" width="180" height="260" fill="#a0522d"/>
  <rect x="520" y="120" width="160" height="260" fill="#a0522d"/>
  <!-- зЃ¶еЏ° -->
  <rect x="100" y="450" width="600" height="300" fill="#d3d3d3"/>
  <circle cx="250" cy="550" r="60" fill="#333"/>
  <circle cx="450" cy="550" r="60" fill="#333"/>
  <circle cx="250" cy="550" r="40" fill="#ff4500" opacity="0.5"/>
  <!-- е†°з®± -->
  <rect x="1400" y="150" width="300" height="600" fill="#c0c0c0" rx="10"/>
  <rect x="1420" y="170" width="260" height="350" fill="#a9a9a9"/>
  <rect x="1420" y="540" width="260" height="190" fill="#a9a9a9"/>
  <circle cx="1650" cy="350" r="15" fill="#333"/>
  <circle cx="1650" cy="640" r="15" fill="#333"/>
  <!-- зЄ—ж€· -->
  <rect x="850" y="150" width="350" height="300" fill="#87ceeb" stroke="#8b4513" stroke-width="10"/>
  <line x="1025" y1="150" x2="1025" y2="450" stroke="#8b4513" stroke-width="6"/>
  <text x="960" y="950" text-anchor="middle" fill="#8b4513" font-size="48" font-family="serif" opacity="0.5">еЋЁж€ї</text>
</svg>