<svg xmlns="http://www.w3.org/2000/svg" width="1920" height="1080" viewBox="0 0 1920 1080">
  <defs>
    <linearGradient id="msky" x1="0%" y1="0%" x2="0%" y2="100%">
      <stop offset="0%" style="stop-color:#1a1a2e"/>
      <stop offset="100%" style="stop-color:#16213e"/>
    </linearGradient>
  </defs>
  <rect width="1920" height="1080" fill="url(#msky)"/>
  <rect y="700" width="1920" height="380" fill="#2d3436"/>
  <!-- 豪宅主体 -->
  <rect x="400" y="250" width="1120" height="450" fill="#34495e"/>
  <rect x="350" y="200" width="1220" height="80" fill="#2c3e50"/>
  <!-- 大门 -->
  <rect x="850" y="450" width="220" height="250" fill="#5d4037" rx="10"/>
  <circle cx="920" cy="580" r="15" fill="#ffd700"/>
  <circle cx="1000" cy="580" r="15" fill="#ffd700"/>
  <!-- 窗户 -->
  <rect x="500" y="300" width="120" height="150" fill="#fffacd" opacity="0.6"/>
  <rect x="700" y="300" width="120" height="150" fill="#fffacd" opacity="0.4"/>
  <rect x="1100" y="300" width="120" height="150" fill="#fffacd" opacity="0.6"/>
  <rect x="1300" y="300" width="120" height="150" fill="#fffacd" opacity="0.4"/>
  <!-- 柱子 -->
  <rect x="450" y="250" width="40" height="450" fill="#bdc3c7"/>
  <rect x="650" y="250" width="40" height="450" fill="#bdc3c7"/>
  <rect x="1230" y="250" width="40" height="450" fill="#bdc3c7"/>
  <rect x="1430" y="250" width="40" height="450" fill="#bdc3c7"/>
  <!-- 月亮 -->
  <circle cx="1600" cy="150" r="80" fill="#f5f5dc"/>
  <text x="960" y="950" text-anchor="middle" fill="#ecf0f1" font-size="48" font-family="serif" opacity="0.5">纪府</text>
</svg>