<svg xmlns="http://www.w3.org/2000/svg" width="1920" height="1080" viewBox="0 0 1920 1080">
  <defs>
    <linearGradient id="wall" x1="0%" y1="0%" x2="0%" y2="100%">
      <stop offset="0%" style="stop-color:#4a3728"/>
      <stop offset="100%" style="stop-color:#2d1f15"/>
    </linearGradient>
  </defs>
  <rect width="1920" height="1080" fill="url(#wall)"/>
  <rect y="750" width="1920" height="330" fill="#3d2817"/>
  <!-- 书架 -->
  <rect x="100" y="100" width="400" height="600" fill="#5d4037" stroke="#8b7355" stroke-width="4"/>
  <rect x="120" y="120" width="360" height="80" fill="#6d4c41"/>
  <rect x="120" y="220" width="360" height="80" fill="#6d4c41"/>
  <rect x="120" y="320" width="360" height="80" fill="#6d4c41"/>
  <rect x="120" y="420" width="360" height="80" fill="#6d4c41"/>
  <rect x="120" y="520" width="360" height="80" fill="#6d4c41"/>
  <!-- 书本 -->
  <rect x="140" y="130" width="30" height="60" fill="#8b0000"/>
  <rect x="180" y="135" width="25" height="55" fill="#00008b"/>
  <rect x="215" y="130" width="35" height="60" fill="#006400"/>
  <!-- 书桌 -->
  <rect x="700" y="500" width="600" height="250" fill="#5d4037" stroke="#8b7355" stroke-width="4"/>
  <rect x="720" y="520" width="560" height="20" fill="#6d4c41"/>
  <!-- 台灯 -->
  <ellipse cx="850" cy="480" rx="60" ry="30" fill="#ffd700" opacity="0.3"/>
  <rect x="840" y="440" width="20" height="60" fill="#c0c0c0"/>
  <ellipse cx="850" cy="440" rx="40" ry="20" fill="#fffacd"/>
  <text x="960" y="900" text-anchor="middle" fill="#c9a96e" font-size="48" font-family="serif" opacity="0.5">书房</text>
</svg>